<svg width="85" height="71" viewBox="0 0 85 71" fill="none" xmlns="http://www.w3.org/2000/svg">
<path d="M30.3043 4.43478C30.3043 1.98552 32.2899 0 34.7391 0H49.5217C51.971 0 53.9565 1.98552 53.9565 4.43478V6.65217C53.9565 9.10144 51.971 11.087 49.5217 11.087H34.7391C32.2899 11.087 30.3043 9.10144 30.3043 6.65217V4.43478Z" fill="#C4DBE3"/>
<path d="M30.3043 63.5652C30.3043 61.116 32.2899 59.1304 34.7391 59.1304H49.5217C51.971 59.1304 53.9565 61.116 53.9565 63.5652V65.7826C53.9565 68.2319 51.971 70.2174 49.5217 70.2174H34.7391C32.2899 70.2174 30.3043 68.2319 30.3043 65.7826V63.5652Z" fill="#C4DBE3"/>
<path d="M13.3043 19.9565C13.3043 15.8744 16.6135 12.5652 20.6957 12.5652H63.5652C67.6473 12.5652 70.9565 15.8744 70.9565 19.9565V50.2609C70.9565 54.343 67.6473 57.6522 63.5652 57.6522H20.6957C16.6135 57.6522 13.3043 54.343 13.3043 50.2609V19.9565Z" fill="white"/>
<path d="M4.43478 48.7826C1.98552 48.7826 0 46.7971 0 44.3478V29.5652C0 27.116 1.98552 25.1304 4.43478 25.1304H6.65217C9.10144 25.1304 11.087 27.116 11.087 29.5652V44.3478C11.087 46.7971 9.10144 48.7826 6.65217 48.7826H4.43478Z" fill="#C4DBE3"/>
<path d="M78.3478 48.7826C75.8986 48.7826 73.913 46.7971 73.913 44.3478V29.5652C73.913 27.116 75.8986 25.1304 78.3478 25.1304H80.5652C83.0145 25.1304 85 27.116 85 29.5652V44.3478C85 46.7971 83.0145 48.7826 80.5652 48.7826H78.3478Z" fill="#C4DBE3"/>
<path d="M34.7393 59.6309H49.5215C51.6946 59.6309 53.4561 61.3923 53.4561 63.5654V65.7822C53.4561 67.9553 51.6946 69.7178 49.5215 69.7178H34.7393C32.5661 69.7178 30.8047 67.9553 30.8047 65.7822V63.5654C30.8047 61.3923 32.5661 59.6309 34.7393 59.6309ZM20.6953 13.0654H63.5654C67.3711 13.0655 70.4558 16.1504 70.4561 19.9561V50.2607C70.4561 54.0666 67.3713 57.1522 63.5654 57.1523H20.6953C16.8895 57.1522 13.8047 54.0666 13.8047 50.2607V19.9561C13.8049 16.1504 16.8897 13.0656 20.6953 13.0654ZM4.43457 25.6309H6.65234C8.82539 25.631 10.5869 27.3924 10.5869 29.5654V44.3477C10.5869 46.5207 8.82539 48.2821 6.65234 48.2822H4.43457C2.26155 48.2821 0.5 46.5207 0.5 44.3477V29.5654C0.5 27.3924 2.26155 25.631 4.43457 25.6309ZM78.3477 25.6309H80.5654C82.7385 25.631 84.5 27.3924 84.5 29.5654V44.3477C84.5 46.5207 82.7385 48.2821 80.5654 48.2822H78.3477C76.1746 48.2821 74.4131 46.5207 74.4131 44.3477V29.5654C74.4131 27.3924 76.1746 25.631 78.3477 25.6309ZM34.7393 0.5H49.5215C51.6945 0.5 53.4559 2.26155 53.4561 4.43457V6.65234C53.456 8.82539 51.6945 10.5869 49.5215 10.5869H34.7393C32.5662 10.5869 30.8048 8.82539 30.8047 6.65234V4.43457C30.8048 2.26155 32.5662 0.5 34.7393 0.5Z" stroke="#EFF4FA"/>
</svg>
