<svg width="103" height="60" viewBox="0 0 103 60" fill="none" xmlns="http://www.w3.org/2000/svg">
<path d="M13.6324 3.78947C13.6324 1.6966 14.9887 0 16.6618 0H26.7598C28.4329 0 29.7892 1.69661 29.7892 3.78947V5.68421C29.7892 7.77708 28.4329 9.47368 26.7598 9.47368H16.6618C14.9887 9.47368 13.6324 7.77708 13.6324 5.68421V3.78947Z" fill="#FFE1BA"/>
<path d="M32.8186 3.78947C32.8186 1.6966 34.1749 0 35.848 0H45.9461C47.6192 0 48.9755 1.69661 48.9755 3.78947V5.68421C48.9755 7.77708 47.6192 9.47368 45.9461 9.47368H35.848C34.1749 9.47368 32.8186 7.77708 32.8186 5.68421V3.78947Z" fill="#FFE1BA"/>
<path d="M52.0049 3.78947C52.0049 1.6966 53.3612 0 55.0343 0H65.1324C66.8054 0 68.1618 1.69661 68.1618 3.78947V5.68421C68.1618 7.77708 66.8054 9.47368 65.1324 9.47368H55.0343C53.3612 9.47368 52.0049 7.77708 52.0049 5.68421V3.78947Z" fill="#FFE1BA"/>
<path d="M71.1912 3.78947C71.1912 1.6966 72.5475 0 74.2206 0H84.3186C85.9917 0 87.348 1.69661 87.348 3.78947V5.68421C87.348 7.77708 85.9917 9.47368 84.3186 9.47368H74.2206C72.5475 9.47368 71.1912 7.77708 71.1912 5.68421V3.78947Z" fill="#FFE1BA"/>
<path d="M13.6324 54.3158C13.6324 52.2229 14.9887 50.5263 16.6618 50.5263H26.7598C28.4329 50.5263 29.7892 52.2229 29.7892 54.3158V56.2105C29.7892 58.3034 28.4329 60 26.7598 60H16.6618C14.9887 60 13.6324 58.3034 13.6324 56.2105V54.3158Z" fill="#FFE1BA"/>
<path d="M32.8186 54.3158C32.8186 52.2229 34.1749 50.5263 35.848 50.5263H45.9461C47.6192 50.5263 48.9755 52.2229 48.9755 54.3158V56.2105C48.9755 58.3034 47.6192 60 45.9461 60H35.848C34.1749 60 32.8186 58.3034 32.8186 56.2105V54.3158Z" fill="#FFE1BA"/>
<path d="M52.0049 54.3158C52.0049 52.2229 53.3612 50.5263 55.0343 50.5263H65.1324C66.8054 50.5263 68.1618 52.2229 68.1618 54.3158V56.2105C68.1618 58.3034 66.8054 60 65.1324 60H55.0343C53.3612 60 52.0049 58.3034 52.0049 56.2105V54.3158Z" fill="#FFE1BA"/>
<path d="M71.1912 54.3158C71.1912 52.2229 72.5475 50.5263 74.2206 50.5263H84.3186C85.9917 50.5263 87.348 52.2229 87.348 54.3158V56.2105C87.348 58.3034 85.9917 60 84.3186 60H74.2206C72.5475 60 71.1912 58.3034 71.1912 56.2105V54.3158Z" fill="#FFE1BA"/>
<path d="M4.54412 40.1053C6.21722 40.1053 7.57353 38.4087 7.57353 36.3158V23.6842C7.57353 21.5913 6.21722 19.8947 4.54412 19.8947H3.02941C1.35631 19.8947 0 21.5913 0 23.6842V36.3158C0 38.4087 1.35631 40.1053 3.02941 40.1053H4.54412Z" fill="#FFE1BA"/>
<path d="M9.08824 14.5263C9.08824 12.4334 10.4445 10.7368 12.1176 10.7368H90.8824C92.5554 10.7368 93.9118 12.4334 93.9118 14.5263V45.4737C93.9118 47.5666 92.5554 49.2632 90.8824 49.2632H12.1176C10.4445 49.2632 9.08824 47.5666 9.08824 45.4737V14.5263Z" fill="white"/>
<path d="M99.9706 40.1053C101.644 40.1053 103 38.4087 103 36.3158V23.6842C103 21.5913 101.644 19.8947 99.9706 19.8947H98.4559C96.7828 19.8947 95.4265 21.5913 95.4265 23.6842V36.3158C95.4265 38.4087 96.7828 40.1053 98.4559 40.1053H99.9706Z" fill="#FFE1BA"/>
<path d="M16.6621 51.0264H26.7598C28.058 51.0264 29.2889 52.3886 29.2891 54.3154V56.2109C29.2889 58.1377 28.058 59.5 26.7598 59.5H16.6621C15.3639 59.5 14.133 58.1377 14.1328 56.2109V54.3154C14.133 52.3886 15.3639 51.0264 16.6621 51.0264ZM35.8477 51.0264H45.9463C47.2444 51.0265 48.4754 52.3888 48.4756 54.3154V56.2109C48.4754 58.1376 47.2444 59.4999 45.9463 59.5H35.8477C34.5496 59.4997 33.3185 58.1375 33.3184 56.2109V54.3154C33.3185 52.3888 34.5496 51.0266 35.8477 51.0264ZM55.0342 51.0264H65.1328C66.4309 51.0267 67.662 52.3889 67.6621 54.3154V56.2109C67.6619 58.1375 66.4309 59.4997 65.1328 59.5H55.0342C53.736 59.4999 52.5051 58.1376 52.5049 56.2109V54.3154C52.505 52.3887 53.736 51.0265 55.0342 51.0264ZM74.2207 51.0264H84.3184C85.6166 51.0264 86.8475 52.3886 86.8477 54.3154V56.2109C86.8475 58.1377 85.6166 59.5 84.3184 59.5H74.2207C72.9225 59.5 71.6916 58.1377 71.6914 56.2109V54.3154C71.6916 52.3886 72.9225 51.0264 74.2207 51.0264ZM12.1172 11.2373H90.8828C92.181 11.2376 93.4121 12.5996 93.4121 14.5264V45.4736C93.4121 47.4004 92.181 48.7624 90.8828 48.7627H12.1172C10.819 48.7624 9.58789 47.4004 9.58789 45.4736V14.5264C9.58789 12.5996 10.819 11.2376 12.1172 11.2373ZM3.0293 20.3945H4.54395C5.84226 20.3945 7.07324 21.7576 7.07324 23.6846V36.3154C7.07324 38.2424 5.84226 39.6055 4.54395 39.6055H3.0293C1.73102 39.6054 0.5 38.2423 0.5 36.3154V23.6846C0.5 21.7577 1.73102 20.3946 3.0293 20.3945ZM98.4561 20.3945H99.9707C101.269 20.3946 102.5 21.7577 102.5 23.6846V36.3154C102.5 38.2423 101.269 39.6054 99.9707 39.6055H98.4561C97.1577 39.6055 95.9268 38.2424 95.9268 36.3154V23.6846C95.9268 21.7576 97.1577 20.3945 98.4561 20.3945ZM16.6621 0.5H26.7598C28.058 0.5 29.2889 1.86231 29.2891 3.78906V5.68457C29.2889 7.61135 28.058 8.97363 26.7598 8.97363H16.6621C15.3639 8.97363 14.133 7.61135 14.1328 5.68457V3.78906C14.133 1.86231 15.3639 0.5 16.6621 0.5ZM35.8477 0.5H45.9463C47.2444 0.500148 48.4754 1.86241 48.4756 3.78906V5.68457C48.4754 7.61125 47.2444 8.97348 45.9463 8.97363H35.8477C34.5496 8.97337 33.3185 7.61116 33.3184 5.68457V3.78906C33.3185 1.8625 34.5496 0.500267 35.8477 0.5ZM55.0342 0.5H65.1328C66.4309 0.500323 67.6619 1.86254 67.6621 3.78906V5.68457C67.662 7.61112 66.4309 8.97331 65.1328 8.97363H55.0342C53.736 8.97354 52.505 7.61129 52.5049 5.68457V3.78906C52.5051 1.86237 53.736 0.500093 55.0342 0.5ZM74.2207 0.5H84.3184C85.6166 0.5 86.8475 1.86231 86.8477 3.78906V5.68457C86.8475 7.61135 85.6166 8.97363 84.3184 8.97363H74.2207C72.9225 8.97363 71.6916 7.61135 71.6914 5.68457V3.78906C71.6916 1.86231 72.9225 0.5 74.2207 0.5Z" stroke="#EFF4FA"/>
</svg>
