<svg width="85" height="67" viewBox="0 0 85 67" fill="none" xmlns="http://www.w3.org/2000/svg">
<path d="M18.1148 4.18033C18.1148 1.8716 19.9864 0 22.2951 0H36.2295C38.5382 0 40.4098 1.8716 40.4098 4.18033V6.27049C40.4098 8.57922 38.5382 10.4508 36.2295 10.4508H22.2951C19.9864 10.4508 18.1148 8.57922 18.1148 6.27049V4.18033Z" fill="#88B6F3"/>
<path d="M44.5902 4.18033C44.5902 1.8716 46.4618 0 48.7705 0H62.7049C65.0136 0 66.8852 1.8716 66.8852 4.18033V6.27049C66.8852 8.57922 65.0136 10.4508 62.7049 10.4508H48.7705C46.4618 10.4508 44.5902 8.57922 44.5902 6.27049V4.18033Z" fill="#88B6F3"/>
<path d="M18.1148 59.918C18.1148 57.6093 19.9864 55.7377 22.2951 55.7377H36.2295C38.5382 55.7377 40.4098 57.6093 40.4098 59.918V62.0082C40.4098 64.3169 38.5382 66.1885 36.2295 66.1885H22.2951C19.9864 66.1885 18.1148 64.3169 18.1148 62.0082V59.918Z" fill="#88B6F3"/>
<path d="M44.5902 59.918C44.5902 57.6093 46.4618 55.7377 48.7705 55.7377H62.7049C65.0136 55.7377 66.8852 57.6093 66.8852 59.918V62.0082C66.8852 64.3169 65.0136 66.1885 62.7049 66.1885H48.7705C46.4618 66.1885 44.5902 64.3169 44.5902 62.0082V59.918Z" fill="#88B6F3"/>
<path d="M6.27049 44.2418C8.57922 44.2418 10.4508 42.3702 10.4508 40.0615V26.127C10.4508 23.8183 8.57922 21.9467 6.27049 21.9467H4.18033C1.8716 21.9467 0 23.8183 0 26.127V40.0615C0 42.3702 1.8716 44.2418 4.18033 44.2418H6.27049Z" fill="#88B6F3"/>
<path d="M12.541 16.0246C12.541 13.7159 14.4126 11.8443 16.7213 11.8443H68.2787C70.5874 11.8443 72.459 13.7159 72.459 16.0246V50.1639C72.459 52.4727 70.5874 54.3443 68.2787 54.3443H16.7213C14.4126 54.3443 12.541 52.4727 12.541 50.1639V16.0246Z" fill="white"/>
<path d="M80.8197 44.2418C83.1284 44.2418 85 42.3702 85 40.0615V26.127C85 23.8183 83.1284 21.9467 80.8197 21.9467H78.7295C76.4208 21.9467 74.5492 23.8183 74.5492 26.127V40.0615C74.5492 42.3702 76.4208 44.2418 78.7295 44.2418H80.8197Z" fill="#88B6F3"/>
<path d="M22.2949 56.2373H36.2295C38.2621 56.2373 39.9101 57.8854 39.9102 59.918V62.0078C39.9102 64.0404 38.2621 65.6885 36.2295 65.6885H22.2949C20.2624 65.6884 18.6152 64.0403 18.6152 62.0078V59.918C18.6153 57.8855 20.2624 56.2374 22.2949 56.2373ZM48.7705 56.2373H62.7051C64.7376 56.2374 66.3847 57.8855 66.3848 59.918V62.0078C66.3848 64.0403 64.7376 65.6884 62.7051 65.6885H48.7705C46.7379 65.6885 45.0898 64.0404 45.0898 62.0078V59.918C45.0899 57.8854 46.7379 56.2373 48.7705 56.2373ZM16.7217 12.3447H68.2783C70.3109 12.3447 71.9589 13.9919 71.959 16.0244V50.1641C71.9589 52.1966 70.3109 53.8447 68.2783 53.8447H16.7217C14.6891 53.8447 13.0411 52.1966 13.041 50.1641V16.0244C13.0411 13.9919 14.6891 12.3447 16.7217 12.3447ZM4.18066 22.4463H6.27051C8.30306 22.4463 9.95112 24.0944 9.95117 26.127V40.0615C9.95115 42.0941 8.30307 43.7422 6.27051 43.7422H4.18066C2.14809 43.7422 0.500026 42.0941 0.5 40.0615V26.127C0.500052 24.0944 2.14811 22.4463 4.18066 22.4463ZM78.7295 22.4463H80.8193C82.8519 22.4463 84.4999 24.0944 84.5 26.127V40.0615C84.5 42.0941 82.8519 43.7422 80.8193 43.7422H78.7295C76.6969 43.7422 75.0489 42.0941 75.0488 40.0615V26.127C75.0489 24.0944 76.6969 22.4463 78.7295 22.4463ZM22.2949 0.5H36.2295C38.2621 0.5 39.9102 2.14808 39.9102 4.18066V6.27051C39.9101 8.30309 38.2621 9.95117 36.2295 9.95117H22.2949C20.2624 9.95109 18.6152 8.30304 18.6152 6.27051V4.18066C18.6152 2.14813 20.2624 0.500087 22.2949 0.5ZM48.7705 0.5H62.7051C64.7376 0.500086 66.3848 2.14813 66.3848 4.18066V6.27051C66.3848 8.30304 64.7376 9.95109 62.7051 9.95117H48.7705C46.7379 9.95117 45.0899 8.30309 45.0898 6.27051V4.18066C45.0898 2.14808 46.7379 0.5 48.7705 0.5Z" stroke="#EFF4FA"/>
</svg>
